<svg width="229" height="222" viewBox="0 0 229 222" fill="none" xmlns="http://www.w3.org/2000/svg"><path d="M160.317 22.384c-.324.454-.662.897-.968 1.365-2.542 3.855-5.04 7.74-7.625 11.57a37.13 37.13 0 0 1-2.948 3.693c-.774.879-1.8 1.368-2.988.929a2.673 2.673 0 0 1-1.782-2.588 19.728 19.728 0 0 1 .227-4.522c.914-4.478 2.462-8.769 4.277-12.96.284-.658.453-1.49 1.44-1.616.651.602.32 1.296.172 1.94-.806 3.471-1.684 6.927-2.43 10.408-.403 1.879-.604 3.801-.874 5.71.001.379.041.758.119 1.13.473-.441.922-.908 1.346-1.397a102.07 102.07 0 0 0 2.79-3.823c3.331-4.8 6.651-9.614 9.96-14.443a7.82 7.82 0 0 1 1.08-1.371.883.883 0 0 1 .972-.23.88.88 0 0 1 .558.827 5.385 5.385 0 0 1-.176 1.728c-1.249 5.35-2.52 10.688-3.783 16.034a63.637 63.637 0 0 0-.81 4.129c-.191 1.138-.134 1.264.489 2.502.648-.288 1.411-.461 1.959-.9a32 32 0 0 0 3.902-3.5 61.998 61.998 0 0 0 7.282-10.295c2.552-4.399 5.062-8.823 7.592-13.233.188-.425.449-.815.771-1.152a1.014 1.014 0 0 1 1.738.673c.029.466-.045.931-.216 1.365-.615 1.947-1.263 3.888-1.893 5.832-.17.447-.234.927-.187 1.404.385-.555.756-1.12 1.155-1.66 1.422-1.93 2.736-3.96 4.32-5.735 1.148-1.288 2.653-2.26 4.028-3.337a3.77 3.77 0 0 1 1.109-.514c2.448-.857 4.014.194 3.863 2.76a17.509 17.509 0 0 1-.864 4.274c-.983 3.034-2.7 5.68-4.68 8.168a8.836 8.836 0 0 1-7.146 3.474c.49 2.566 2.48 3.866 4.838 3.24a8.34 8.34 0 0 0 4.011-2.441c1.94-2.103 3.891-4.209 5.713-6.419 3.013-3.657 5.835-7.459 8.106-11.642.666-1.22 1.487-2.361 2.257-3.567-.781-.285-1.619.637-2.39-.238.094-.817.835-1.022 1.44-1.274 2.959-1.253 5.893-2.585 8.921-3.647 3.139-1.098 6.364-1.94 9.564-2.85a5.761 5.761 0 0 1 1.908-.166c.303.021.587.36.965.619L209.43 7.204l-2.11 10.44c3.69-1.04 7.333-2.074 10.98-3.086a9.49 9.49 0 0 1 2.062-.396 6.99 6.99 0 0 1 1.631.31c-.266 1.13-1.019 1.36-1.717 1.61a1806.728 1806.728 0 0 1-10.907 3.851c-3.089 1.08-3.143 1.08-3.766 4.169-.41 2.059-.684 4.147-.95 6.23a23.457 23.457 0 0 0-.018 2.704c1.08-.36 1.908-.6 2.682-.932 4.046-1.735 7.779-4.035 11.48-6.397a22.224 22.224 0 0 1 2.073-1.03c.148.98-.32 1.361-.745 1.707-4.036 3.312-8.24 6.379-13.05 8.492-3.308 1.44-5.039.36-5.19-3.29-.141-3.075.485-6.048 1.335-8.978.48-1.458.829-2.956 1.044-4.475-.328.421-.677.824-.983 1.26a108.596 108.596 0 0 1-9.284 11.433 15.196 15.196 0 0 1-6.505 4.284c-3.153 1.03-6.58-1.148-7.531-3.6-.313-.814-.572-1.649-.961-2.783-.36.67-.63 1.127-.828 1.617a5879.262 5879.262 0 0 0-6.033 14.953c-.216.54-.36 1.149-.72 1.584-.238.295-.896.573-1.159.443a1.645 1.645 0 0 1-.778-1.159c-.039-.55.227-1.134.4-1.692 1.721-5.46 3.446-10.917 5.176-16.372.218-.567.34-1.167.36-1.775-.288.418-.572.843-.871 1.257-2.246 3.135-4.377 6.36-6.785 9.36-1.44 1.8-3.294 3.297-5.04 4.852a6.66 6.66 0 0 1-2.128 1.195c-1.987.72-3.726-.324-3.891-2.448a12.59 12.59 0 0 1 .245-3.823c.964-4.15 2.062-8.28 3.114-12.401.154-.612.324-1.217.486-1.822l-.231-.112zm19.799 3.993c2.283 1.12 4.176.442 5.602-1.015 3.182-3.24 5.489-7.07 6.433-11.6a7.38 7.38 0 0 0 0-1.295c-.558.19-.998.23-1.293.457-1.202.907-2.52 1.742-3.506 2.844a53.92 53.92 0 0 0-6.84 9.683c-.138.303-.26.611-.367.926h-.029zM120.109 60.28a14.618 14.618 0 0 1-.216 1.99c-1.415 5.79-2.797 11.581-4.32 17.345-2.023 7.794-4.183 15.555-6.285 23.338a19.85 19.85 0 0 1-.742 2.159c-.281.692-.72 1.235-1.573 1.142-.745-.083-1.112-.62-1.253-1.289-.313-1.483-.633-2.97-.875-4.468a4658.244 4658.244 0 0 1-2.717-17.142c-.36-2.365-.638-4.74-1.192-7.2-.169.436-.36.86-.5 1.303-2.777 8.796-5.56 17.593-8.348 26.391-.227.72-.454 1.44-.746 2.16-.291.72-.666 1.379-1.584 1.519-.72-.619-.42-1.4-.251-2.102 1.137-4.77 2.177-9.569 3.506-14.285 1.458-5.165 3.19-10.255 4.798-15.378.17-.54.328-1.08.609-2.016-1.08.85-1.861 1.44-2.628 2.052-2.671 2.106-5.4 4.104-8.701 5.155-.864.277-.947.947-1.156 1.588a95.636 95.636 0 0 1-6.26 15.029 90.484 90.484 0 0 1-4.931 8.038 9.53 9.53 0 0 1-2.682 2.477c-1.843 1.213-3.6.832-4.907-.947-1.231-1.652-1.645-3.6-1.76-5.601-.195-3.43.428-6.76 1.41-10.019 1.66-5.493 4.27-10.507 8.104-14.795 1.188-1.328 2.113-2.52 2.369-4.406.392-2.88 1.854-5.4 3.69-7.65a9.612 9.612 0 0 1 2.35-2.066c1.61-.986 3.186-.598 4.32.918a6.84 6.84 0 0 1 1.264 3.942c.122 2.959-.594 5.8-1.188 8.657-.13.616-.263 1.231-.475 2.218 1.137-.573 2.07-.893 2.833-1.44 2.833-2.052 5.619-4.18 8.412-6.289.469-.36.846-.82 1.325-1.148 1.08-.745 2.106-.335 2.369.94.99 4.855 2.019 9.719 2.916 14.579.817 4.42 1.479 8.87 2.21 13.319.045.33.2.636.439.868.173-.566.36-1.127.515-1.692 3.276-11.28 6.552-22.551 9.828-33.814.36-1.22.687-2.473 1.605-3.434l.418.054zm-42.5 17.463a3.703 3.703 0 0 0-.518.396c-.273.304-.53.62-.77.95a43.889 43.889 0 0 0-7.77 18.745c-.36 2.16-.496 4.298.076 6.433.638 2.386 1.602 2.656 3.356.961a7.731 7.731 0 0 0 1.047-1.174c.878-1.307 1.8-2.599 2.556-3.96a103.203 103.203 0 0 0 7.513-17.124c.147-.428.23-.886.36-1.465-2.668-.227-4.468-1.663-5.85-3.762zm6.84 1.195c.554-2.653 1.173-5.252 1.62-7.876.186-1.326.235-2.668.147-4.003-.029-.86-.162-1.905-1.137-2.178-.911-.256-1.44.612-1.955 1.224a16.689 16.689 0 0 0-3.121 6.026c-.1.427-.174.86-.223 1.296 2.563.51 2.988.896 2.826 2.599-.908-.483-1.83-.864-2.73-.072.847 2.185 1.902 2.93 4.57 2.984h.003zm38.993-57.446c-.36.497-.756.987-1.119 1.487-2.243 3.07-4.36 6.239-6.75 9.187-2.318 2.855-4.885 5.515-7.405 8.2-.764.807-1.639 1.5-2.599 2.06-2.001 1.173-3.571.42-3.981-1.854a15.41 15.41 0 0 1 .187-6.275c.601-2.56 1.332-5.086 2.005-7.624.133-.5.27-.997.472-1.743-.591.206-.998.324-1.39.486-3.449 1.44-6.865 2.985-10.357 4.32-1.256.479-1.818 1.177-2.138 2.423-1.854 7.243-3.776 14.468-5.691 21.696-.36 1.397-.393 1.39-1.282 2.232-.907-.518-.687-1.357-.583-2.16.684-5.097 1.461-10.177 2.765-15.166.5-1.919.979-3.848 1.44-5.76.07-.388.116-.78.14-1.173-3.463 1.101-6.674 2.47-10.12 2.908l-.172-.4c.587-.312 1.16-.665 1.764-.932 2.671-1.188 5.335-2.394 8.042-3.499a2.88 2.88 0 0 0 1.9-2.048c.965-3.416 2.024-6.807 3.093-10.367-3.643.432-7.005 2.16-10.638 2.03l-.122-.45c.307-.217.631-.41.968-.576 7.467-3.16 15.257-5.18 23.219-6.58.98-.173 1.966-.307 2.952-.429.515-.061 1.17-.18 1.329.49.158.67-.458.853-.972 1-1.966.573-3.921 1.177-5.897 1.692-2.88.753-5.785 1.44-8.675 2.16-.39.097-.764.252-.954.317-.127 1.857-.173 3.6-.379 5.31-.205 1.71-.543 3.311-.903 5.252.72-.248 1.231-.392 1.724-.608 3.582-1.577 7.157-3.176 10.746-4.741.774-.339 1.598-.994 2.433-.227.835.767.342 1.638.119 2.462-.806 2.988-1.721 5.95-2.426 8.964a40.724 40.724 0 0 0-.778 5.54c-.065.72.177 1.44.285 2.242 1.346-.144 2.131-.874 2.826-1.63 2.411-2.628 4.91-5.191 7.106-7.992 3.391-4.32 6.559-8.82 9.831-13.24.45-.608.932-1.199 1.407-1.8.403-.504.799-1.098 1.573-.832.864.3.814 1.08.72 1.772a52.38 52.38 0 0 1-.784 5.198c-2.214 9.507-4.731 18.931-8.111 28.1-.227.623-.36 1.61-1.249 1.44-1.019-.212-.698-1.228-.619-1.93.741-6.41 2.311-12.635 4.287-18.765.969-3.003 1.887-6.02 2.819-9.032.081-.328.143-.66.184-.994l-.242-.14zM16.093 85.159c1.39-1.8 2.722-3.644 4.198-5.375a11.875 11.875 0 0 1 2.747-2.416c2.419-1.49 4.737-.33 5.15 2.48a11.331 11.331 0 0 1-.56 5.184 26.15 26.15 0 0 1-5.177 9.277c-.41.472-.803.958-1.242 1.484 2.916.856 3.542 1.756 3.82 4.762.323 3.51-.72 6.707-2.06 9.846-1.573 3.725-4.046 6.839-6.97 9.575-2.487 2.336-5.424 3.845-8.729 4.23-.37.577-.783 1.126-1.234 1.642a1.046 1.046 0 0 1-.94.18 1.248 1.248 0 0 1-.479-.828 2.855 2.855 0 0 1 .083-1.041c1.134-5.731 2.077-11.519 3.463-17.178 1.732-7.092 3.83-14.094 5.76-21.131a1.43 1.43 0 0 1 .165-.497c.303-.382.58-.853.987-1.044.165-.076.633.511 1.018.85zm-7.966 36.308c.126.036.18.068.22.057.17-.033.335-.09.49-.169 6.72-4.147 11.22-9.932 12.959-17.693a13.09 13.09 0 0 0 .212-3.481c-.076-1.588-.644-2.041-2.16-1.534a19.66 19.66 0 0 0-3.711 1.879c-1.138.677-2.193 1.491-3.345 2.286a5424.827 5424.827 0 0 1-4.665 18.655zM13.98 97.92c2.83-2.444 5.57-4.874 7.657-7.92 1.526-2.22 2.819-4.572 3.488-7.2.296-1.151.576-2.35-.1-3.52-1.098.08-1.8.702-2.42 1.39-1.659 1.875-3.3 3.772-4.874 5.72-1.483 1.832-2.574 3.852-2.8 6.285-.126 1.325-.533 2.624-.792 3.938-.083.436-.105.871-.159 1.307zm178.895-13.806c.655-.439 1.357-.752 1.836-1.27a27.628 27.628 0 0 0 2.757-3.391c4.011-6.016 6.973-12.55 9.392-19.339a8.1 8.1 0 0 0 .198-.95 10.589 10.589 0 0 1-1.227-.245c-1.102-.36-2.297-.565-3.269-1.145-2.692-1.605-3.369-4.341-1.908-7.113a9.354 9.354 0 0 1 3.093-3.524c2.159-1.44 4.258-1.08 5.842 1.004a7.674 7.674 0 0 1 1.516 4.403c.028.694 0 1.39 0 2.282.648-.123 1.198-.205 1.738-.335 4.255-1.03 8.507-2.088 12.769-3.088.936-.172 1.88-.292 2.829-.36.36 1.08-.262 1.44-.799 1.735-.613.338-1.258.617-1.926.831-4.924 1.656-9.845 3.326-14.795 4.907-.846.27-1.008.82-1.26 1.48-1.501 3.927-2.934 7.883-4.572 11.75a52.242 52.242 0 0 1-6.008 10.673 20.665 20.665 0 0 1-3.546 3.844c-2.754 2.221-5.759 1.242-6.937-2.088a9.565 9.565 0 0 1-.144-5.536 45.945 45.945 0 0 1 8.683-17.82 13.806 13.806 0 0 1 1.977-1.98 2.78 2.78 0 0 1 1.407-.59 1.343 1.343 0 0 1 .994.504c.111.137-.083.634-.26.886a58.19 58.19 0 0 0-8.906 20.411c-.291 1.292-.5 2.642.526 4.064zm15.479-28.755c.087-1.033.31-1.923.195-2.765a7.672 7.672 0 0 0-.915-2.765c-.604-1.03-1.504-1.123-2.336-.288-.74.74-1.36 1.59-1.839 2.52-.681 1.343-.249 2.333 1.112 3.006 1.134.572 2.351.504 3.776.292h.007zm-75.198 47.331c-.915-.72-.688-1.638-.519-2.466 1.2-5.89 2.422-11.769 3.665-17.64.288-1.356.72-2.685.875-4.142-.292.313-.594.619-.868.943-2.462 2.88-4.881 5.824-7.401 8.668a32.138 32.138 0 0 1-3.582 3.34c-1.022.854-2.268 1.358-3.6.753-1.407-.648-1.699-2.009-1.706-3.402-.025-.934.06-1.868.252-2.782 1.962-8.28 5.184-15.998 10.623-22.643a50.803 50.803 0 0 1 4.521-4.633 5.931 5.931 0 0 1 3.6-1.667c1.8-.151 2.833.72 2.823 2.354-.087.076-.184.22-.263.209-2.088-.252-3.525.85-4.867 2.246-3.647 3.794-6.44 8.157-8.69 12.877a67.683 67.683 0 0 0-4.446 12.34c-.18.72-.22 1.44-.389 2.596.9-.645 1.519-.972 1.991-1.44 1.652-1.653 3.319-3.298 4.852-5.04 2.844-3.262 5.595-6.599 8.384-9.903.303-.36.566-.817.954-1.012.468-.237 1.156-.475 1.563-.295a1.867 1.867 0 0 1 .882 1.343 6.603 6.603 0 0 1-.335 2.235 8624.386 8624.386 0 0 1-6.93 25.156c-.201.734-.338 1.591-1.389 2.005zM26.373 63.517c-.89-.803-.576-1.57-.443-2.294a162.078 162.078 0 0 1 4.464-18.719c1.44-4.622 3.002-9.212 4.536-13.809.26-.636.562-1.253.903-1.85 1.008.623.72 1.375.58 1.99-.562 2.52-1.18 5-1.8 7.492-.36 1.411-.72 2.811-1.174 4.507a12.13 12.13 0 0 0 1.566-.598c4.893-2.76 9.263-6.12 12.391-10.89.436-.665.842-1.612 1.865-1.162 1.022.45.619 1.343.424 2.16-2.602 10.663-5.529 21.24-8.852 31.704a12.6 12.6 0 0 1-.651 1.8c-.155.317-.515.529-.774.78-.882-.622-.598-1.353-.454-2 1.242-5.584 2.441-11.178 3.798-16.733.843-3.448 1.94-6.84 3.002-10.522-.286.163-.558.35-.813.558-2.236 2.29-4.939 3.917-7.736 5.4a9.694 9.694 0 0 1-2.952 1.04c-1.047.166-1.462.637-1.731 1.613-1.534 5.572-3.136 11.127-4.716 16.685a8.755 8.755 0 0 1-.483 1.498c-.283.472-.6.924-.95 1.35zm32.406 9.665c-.087 1.08-.047 2.189-.274 3.24a821.663 821.663 0 0 1-3.492 15.555c-1.605 6.822-3.29 13.625-4.928 20.44-.176.72-.284 1.461-.435 2.257.997.288 1.562-.313 2.203-.63 2.83-1.393 5.648-2.808 8.481-4.194a9.439 9.439 0 0 1 1.422-.382c-.209.576-.256.976-.472 1.221-.361.382-.77.716-1.216.993-2.383 1.595-4.741 3.24-7.178 4.723a8.513 8.513 0 0 1-3.064 1.167c-1.587.244-2.772-.598-3.096-2.178a9.254 9.254 0 0 1-.068-3.287 164.167 164.167 0 0 1 6.58-26.135c1.296-3.816 2.715-7.588 4.1-11.375.239-.55.512-1.086.818-1.602l.619.187zM38.383 80.82c.184 4.32-1.35 8.147-2.088 12.323.616-.234 1.08-.382 1.534-.59 1.954-.922 3.895-1.872 5.853-2.787.612-.288 1.25-.658 1.955-.212.104.886-.602 1.116-1.123 1.411-2.592 1.462-5.191 2.916-7.83 4.298-.72.36-1.26.742-1.44 1.577-1.318 5.76-2.664 11.48-3.996 17.222-.061.273-.075.554-.158 1.159.655-.396 1.08-.616 1.48-.904 2.861-2.124 5.705-4.273 8.578-6.382.61-.39 1.244-.739 1.9-1.044.562 1.051-.021 1.559-.496 2.03-1.498 1.476-2.985 2.97-4.572 4.345-1.364 1.185-2.848 2.239-4.32 3.305a5.973 5.973 0 0 1-1.685.907c-1.958.608-3.808-.562-3.834-2.606a25.23 25.23 0 0 1 .562-5.375c.72-3.485 1.62-6.93 2.437-10.396.105-.44.17-.893.252-1.329-.619-.234-1.177.828-1.613 0-.396-.741.267-1.285.796-1.53 1.642-.752 2.045-2.213 2.542-3.733 1.101-3.383 2.31-6.731 3.513-10.08.245-.658.453-1.457 1.753-1.608z" fill="#F3F6F9"/><path d="M143.949 11.153a170.434 170.434 0 0 1-11.681 37.748l-.591-.126c.09-.828.123-1.667.285-2.48 1.8-9.248 4.528-18.248 7.664-27.129.928-2.62 1.944-5.212 2.934-7.862-4.104.418-8.219 1.35-12.47.879-.083-1.02.576-1.232 1.166-1.4 1.512-.44 3.028-.893 4.572-1.207 4.68-.957 9.381-1.947 14.108-2.728 1.94-.324 3.959-.162 5.95-.18.348.01.685.118.976.31a.716.716 0 0 1 .388.638.715.715 0 0 1-.388.64 4.504 4.504 0 0 1-1.318.453l-10.645 2.16c-.331.065-.655.194-.95.284zm17.55 47.244c-.558-.086-.951-.154-1.347-.205-2.246-.306-3.34.198-4.438 2.228a12.682 12.682 0 0 0-1.509 7.625c.36 3.063.994 6.12 1.653 9.115s1.317 5.932 1.339 9c.039 6.018-2.34 11.127-6.12 15.63a32.159 32.159 0 0 1-3.934 3.726c-.56.41-1.221.659-1.912.72-.338.043-.864-.324-1.08-.655-.119-.191.137-.792.392-1.005 2.607-2.178 4.288-5.061 6.12-7.837 3.474-5.241 4.169-10.893 2.779-16.919-.72-3.07-1.267-6.174-1.8-9.277a18.525 18.525 0 0 1 .879-9.489c.615-1.735 1.544-3.276 3.096-4.356 1.551-1.08 3.124-1.249 4.795-.403.842.41 1.015.752 1.087 2.102zm29.7-8.999c-.529 2.473-.922 4.701-1.483 6.886a328.517 328.517 0 0 1-12.503 38.234c-.19.49-.388.98-.626 1.44-.295.587-.659 1.213-1.44.954-.687-.223-.695-.893-.59-1.483.176-1.033.36-2.07.63-3.081 3.099-11.743 7.03-23.22 11.199-34.616.842-2.3 1.8-4.561 2.757-6.811.296-.706.674-1.47 2.056-1.523zM58.543 27.456c.764.505.483 1.167.324 1.765-.565 2.16-1.17 4.28-1.753 6.422-.147.547-.266 1.101-.443 1.818 3.086-.523 5.919-1.494 8.838-1.98.058.147.112.295.166.442-.56.345-1.147.646-1.753.9-2.16.72-4.32 1.44-6.523 2.045-.879.248-1.361.616-1.624 1.548-1.44 5.119-2.966 10.21-4.431 15.32-.249.869-.332 1.8-.526 2.88a11.896 11.896 0 0 0 1.591-.266c3.107-1.015 6.206-2.055 9.31-3.081.564-.187 1.137-.36 1.706-.53l.198.404a8.53 8.53 0 0 1-1.142.914 51.616 51.616 0 0 1-10.619 4.554c-2.203.645-3.265-.032-3.42-2.329a12.705 12.705 0 0 1 .31-4.15c1.22-4.446 2.696-8.824 3.898-13.277.544-1.998 1.34-3.891 1.995-5.839.655-1.947 1.544-3.924 2.386-5.846.31-.706.519-1.595 1.512-1.714zM13.973 71.54a6.396 6.396 0 0 1 0-3.804c2.203-8.586 4.36-17.186 6.7-25.736a112.71 112.71 0 0 1 6.45-17.93c.306-.663.72-1.275 1.08-1.901.857.396.62.99.519 1.44a59.006 59.006 0 0 1-1.019 4.071 17637.803 17637.803 0 0 1-11.88 40.833c-.298 1.098-.439 2.322-1.85 3.028zm-2.66-48.533c.598-.338.994-.608 1.44-.799 3.6-1.598 7.398-2.52 11.235-3.287a5954.35 5954.35 0 0 1 20.257-4.082c.831-.165 1.68-.227 2.901-.389a3.489 3.489 0 0 1-2.336 1.656c-3.434.933-6.84 1.94-10.328 2.718-6.951 1.552-13.928 2.974-20.897 4.446-.684.137-1.36.374-2.272-.263zm190.859 21.837c-.18 1.13-1.08 1.138-1.742 1.329a707.31 707.31 0 0 1-12.78 3.578c-2.192.59-4.417 1.08-6.634 1.555a8.426 8.426 0 0 1-2.081.18.958.958 0 0 1-.72-.55 1.046 1.046 0 0 1 .41-.843 4.732 4.732 0 0 1 1.419-.663c3.693-1.04 7.383-2.123 11.105-3.049 2.768-.684 5.587-1.177 8.391-1.702.854-.166 1.786-.44 2.632.165zM50.99 72.714c-.911.72-1.462 1.306-2.135 1.663-3.042 1.605-6.095 3.19-9.19 4.68-2.16 1.04-4.364 1.936-6.8 3.005.103-.471.075-.82.237-.99.396-.428.85-.797 1.35-1.097 3.87-2.16 7.732-4.342 11.656-6.408 1.062-.558 2.308-.778 3.485-1.08.288-.08.64.093 1.396.227zm19.487-50.865c-.738.986-7.164 3.384-12.895 5.04-1.767.507-1.767.507-3.16.187.648-.93 1.645-1.142 2.52-1.502 4.348-1.817 8.78-3.376 13.535-3.725zm8.964 149.498a37.643 37.643 0 0 1-8.226 12.048c-1.684 1.638-3.927 1.646-6.008.882-2.88-1.051-4.06-3.455-4.456-6.335-.05-.36-.116-.72-.173-1.08l-.245-.051c-.331.655-.67 1.303-.99 1.962-2.009 4.1-4.003 8.208-6.03 12.297l-1.57 2.693a13.477 13.477 0 0 1-.993 1.8c-.932 1.339-1.8 2.743-2.926 3.917a5.706 5.706 0 0 1-2.73 1.587c-.86.194-1.799.148-2.735.284-.46.065-1.26-.59-1.523-1.112a14.76 14.76 0 0 1-1.44-3.913c-.72-4.158-.24-8.348-.165-12.535.144-7.786 2.588-15.015 5.083-22.25.36-1.051.767-2.088 1.137-3.136.101-.291.159-.597.238-.896l-.212-.101c-.414.612-.814 1.235-1.242 1.84-.77 1.08-1.462 2.16-2.816 2.775-2.102.947-3.373.594-4.32-1.591-.165-.36-.313-.745-.554-1.328-.439 1.105-.813 2.026-1.173 2.952-1.314 3.373-2.603 6.753-3.96 10.108-3.927 8.686-8.366 17.43-10.778 21.203-.954 1.256-1.728 2.653-2.721 3.873-1.667 2.06-3.356 4.119-5.537 5.692-1.166.839-2.203 1.933-3.478 2.52-2.12 1-4.413.784-5.828-1.617-1.483-2.52-2.005-5.295-2.498-8.085-.903-5.101-.626-10.205.068-15.31.72-5.245 1.876-10.371 3.935-15.26 1.627-3.873 3.514-7.617 6.246-10.842a14.185 14.185 0 0 1 3.139-2.762 3.19 3.19 0 0 1 2.586-.341 3.17 3.17 0 0 1 1.971 1.709c.886 1.829 1.372 3.791.897 5.832-.098.432-.594.774-1.03 1.105a14.106 14.106 0 0 0-1.634-6.393c-.352.429-.68.876-.987 1.339a80.063 80.063 0 0 0-9.467 25.944 54.36 54.36 0 0 0 0 19.922 12 12 0 0 0 .968 2.71c.382.828 1.584.99 2.279.422 4.064-3.338 7.124-7.495 9.604-12.071a249.99 249.99 0 0 0 6.203-12.239c2.239-4.723 4.345-9.511 6.415-14.313 1.296-3.01 2.426-6.091 3.6-9.151.14-.385.2-.794.176-1.202-.144-3.525.832-6.84 1.955-10.101 1.296-3.769 2.617-7.528 4.705-10.951.234-.382.558-.951.889-.987a7.794 7.794 0 0 1 2.52.17c.284.061.637.615.651.957-3.46 5.796-6.462 20.379-5.504 26.333l.234.097c.26-.285.5-.587.72-.903 1.649-2.765 3.24-5.555 4.932-8.305 1.75-2.844 3.55-5.663 5.35-8.471.23-.36.518-1.015 1.176-.284.224.245.832.094 1.214.245 1.155.45 1.519 1.368 1.601 2.563.188 2.682-.406 5.241-1.105 7.772-2.21 7.981-4.442 15.958-6.775 23.903-1.306 4.446-2.653 8.877-3.049 13.514-.216 2.52-.248 5.076-.277 7.617 0 .659.32 1.318.55 2.199.359-.269.686-.577.976-.917 1.332-2.16 2.783-4.273 3.917-6.538 3.424-6.839 6.732-13.715 10.047-20.598.41-.869.697-1.791.853-2.74.926-5.507 2.16-10.921 4.64-15.968 1.552-3.172 3.442-6.12 6.023-8.586.234-.223.482-.428.72-.637 2.012-1.696 4.13-1.048 5.76.479.535.568.85 1.308.889 2.087a18.166 18.166 0 0 1-1.44 7.348 29.231 29.231 0 0 1-4.32 7.689c-.921 1.138-1.933 2.106-3.441 2.43a1.05 1.05 0 0 0-.627.695c-.82 4.618-1.44 9.262-1.256 13.971.029.806.198 1.605.331 2.653.558-.36.958-.594 1.293-.882a25.658 25.658 0 0 0 6.202-7.776c1.8-3.513 3.42-7.12 5.133-10.681.386-.802.875-1.558 1.257-2.365.18-.37.379-.731.597-1.08.886-1.976.76-4.489 1.332-6.681 2.117-8.132 5.67-15.501 11.398-21.707 1.27-1.382 2.854-2.502 4.395-3.6 2.844-2.03 8.06.929 7.786 4.352-.003.255.067.505.202.72 1.562-3.056 2.538-6.379 4.604-9.392.173.418.245.587.223.533.49.112.979.079 1.127.288.292.414.605.994.54 1.44-.227 1.624-.572 3.24-.943 4.827a383.262 383.262 0 0 1-2.272 9.382c-1.479 5.759-3.07 11.483-4.499 17.25-1.818 7.337-3.327 14.738-3.899 22.294a24.465 24.465 0 0 0 .112 3.413c0 .23.226.629.342.626a.978.978 0 0 0 .719-.36 35.766 35.766 0 0 0 2.376-3.985c5.649-12.193 11.16-24.45 16.92-36.596 2.224-4.68 3.549-9.658 5.27-14.507 1.299-3.669 2.746-7.287 4.122-10.93.154-.406.262-.835.435-1.396-1.166.241-2.091.486-3.031.612-2.106.288-4.222.486-6.325.774-1.44.201-2.88.496-4.32.741-1.735.292-3.473.551-5.201.871-1.354.252-2.697.796-4.047.807-1.918 0-3.599 1.08-5.518.964a10.48 10.48 0 0 0-1.48-.136c-.644.057-1.27.306-1.915.378-1.299.144-2.606.266-3.913.306a1.943 1.943 0 0 1-1.231-.638l2.47-.943.025.108c.295-.086.597-.154.885-.262.21-.123.427-.23.652-.321 3.621-.655 7.236-1.343 10.868-1.919 3.481-.55 6.987-.943 10.472-1.465 4.05-.608 8.092-1.267 12.128-1.947a1.338 1.338 0 0 0 .788-.677c.551-1.102 1.03-2.236 1.533-3.355.066-.226.17-.439.306-.63.44-.432.882-1.062 1.397-1.148.439-.072 1.041.45 1.462.828.247.284.385.648.389 1.026.025.672.003 1.346-.065 2.015-.087 1.023-.04 1.08.954.94 4.777-.72 9.546-1.476 14.323-2.199 7.56-1.145 15.12-2.304 22.679-3.402a534.594 534.594 0 0 1 12.712-1.66c4.589-.554 9.186-1.047 13.783-1.541a1.093 1.093 0 0 1 .835.303c.648.828.53 1.141-.504 1.26-2.757.309-5.522.54-8.279.86-2.225.259-4.439.605-6.656.918-1.995.281-3.988.564-5.98.85l-6.58.968-9.813 1.512c-2.455.36-4.907.72-7.358 1.109-3.107.475-6.217.939-9.32 1.44-2.459.399-4.907.867-7.362 1.292-1.08.184-2.16.259-3.175.536a1.578 1.578 0 0 0-.907.99c-.951 3.892-1.8 7.808-2.743 11.707-.688 2.88-1.311 5.778-2.225 8.586-.817 2.519-1.163 5.097-1.768 7.638a195.667 195.667 0 0 0-1.681 7.812 103.965 103.965 0 0 0-1.98 18.492c-.039 2.88 0 5.782 0 8.672 0 .422.08.843.148 1.552a5.52 5.52 0 0 0 .72-.785c2.243-4.24 4.568-8.441 6.667-12.754 1.173-2.412 2.023-4.989 2.919-7.524a204.093 204.093 0 0 0 3.535-10.986c1.559-5.4 4.119-10.325 8.168-14.36a1.077 1.077 0 0 0 .159-.965 9.03 9.03 0 0 1 2.901-10.897 20.561 20.561 0 0 1 2.445-1.526c.396-.209.928-.475 1.27.281.418-.616.796-.403 1.386-.202 1.113.382 1.825 1.145 2.574 1.933.961 1.012 1.645 2.099 1.271 3.6-.019.312.031.625.148.915.41 1.63.269 3.261 0 4.892-.003.17.01.34.039.507a8.624 8.624 0 0 0 1.138-.439c2.754-1.533 5.191-3.503 7.527-5.598a550.307 550.307 0 0 0 7.588-6.929c.282-.289.488-.643.602-1.03a26.143 26.143 0 0 1 3.959-7.664c.142-.185.295-.362.458-.529.057-.058.151-.079.424 0-.277.453-.565.9-.828 1.361-.262.46-.568 1.015-.828 1.537a4.637 4.637 0 0 0-.514 1.609l2.818-4.395.144.237c.284.026.565.08.839.158.526.206.767.555.547 1.156-.547 1.476-1.119 2.948-1.58 4.453-.63 2.056-1.166 4.14-1.8 6.379 1.656-.284 1.991-2.261 3.575-2.488 1.353.155 2.12.954 2.959 1.671.838.716 1.015 1.685 1.08 2.815.262 3.729-1.239 7.048-2.268 10.439-2.686 8.852-5.4 17.686-7.56 26.69-.464 1.944-.201 3.837.137 5.741a1.067 1.067 0 0 0 .525.72c.17.058.58-.234.72-.468 1.145-1.969 2.384-3.902 3.345-5.961a1364.704 1364.704 0 0 0 9.564-21.012 139.297 139.297 0 0 1 8.169-15.944c.547-.904.647-2.095.878-3.168.878-4.132 2.541-7.754 6.21-10.209 2.62-1.753 6.62-.281 8.157 1.908.637.911.191 1.767-.097 2.639-.983.154-1.566-.36-2.002-1.264l-.831.533c-.108-.083-.285-.263-.314-.241a1.974 1.974 0 0 0-.892 1.699l1.224-1.483-2.117 4.96c.114.253.169.529.162.807-.72 4.172-.259 8.337.065 12.502.237 3.092.565 6.177.828 9.266.36 4.449-.36 8.783-1.721 12.981a76.138 76.138 0 0 1-3.492 8.888c-1.541 3.207-4.395 4.395-7.858 4.244a3.238 3.238 0 0 1-2.783-1.602 9.947 9.947 0 0 1-1.368-5.637 3.163 3.163 0 0 1 .238-.925c.14.108.237.244.338.248 1.199.036 1.08.054 1.314 1.21a18.853 18.853 0 0 0 1.224 3.808c.381.871.893.94 1.584.263.543-.533 1.112-1.228 1.26-1.937.452-1.992.745-4.016.878-6.055.209-4.355.36-8.722.292-13.081-.047-3.064-.508-6.12-.72-9.187-.126-1.721-.162-3.449-.245-5.173 0-.328-.054-.659-.079-.99l-.295-.09c-.522 1.011-1.08 2.005-1.559 3.042-2.272 4.964-4.504 9.953-6.779 14.917-1.85 4.003-3.668 8.021-5.615 11.981a65.579 65.579 0 0 1-4.108 7.333 8.86 8.86 0 0 1-3.305 2.879c-.939.472-2.325.429-3.394.159-.911-.231-1.703-1.058-2.455-1.724a4.08 4.08 0 0 1-.796-1.354 26.568 26.568 0 0 1-2.037-16.451 81.79 81.79 0 0 1 5.263-17.168c.903-2.127 1.915-4.205 2.88-6.31.114-.343.204-.693.269-1.048-1.144.58-1.67-.061-2.267-.655-.123-.126-.666-.033-.846.14-.796.771-1.491 1.649-2.293 2.412-1.44 1.361-2.949 2.628-4.353 4.01-.756.742-1.263 1.746-2.048 2.452-1.998 1.8-4.151 3.409-6.815 4.143a4.328 4.328 0 0 0-1.061.393c-.202.126-.472.468-.422.619.296.911-.079 1.749-.223 2.595-.174.95-.421 1.885-.738 2.797-.522 1.592-1.105 3.161-1.652 4.745-.36 1.012-.666 2.037-1.022 3.049a59.121 59.121 0 0 1-1.127 2.984c-.634 1.552-1.26 3.107-1.966 4.622a34.958 34.958 0 0 1-1.875 3.564 44.058 44.058 0 0 1-2.938 4.403c-1.648 2.084-4.37 2.181-6.411.461-1.8-1.505-2.61-3.481-3.053-5.684-.057-.292-.136-.584-.237-1.005-.508 1.408-.886 2.682-1.422 3.884a56.523 56.523 0 0 1-2.855 5.926 131.644 131.644 0 0 1-5.601 8.639c-.601.857-1.627 1.473-2.567 2.013-.752.36-1.922-.393-2.549-.947-1.375-1.102-1.648-2.696-1.8-4.215-.385-3.989-.702-7.992-.795-11.999-.126-5.356-.148-10.72.533-16.059a.675.675 0 0 0-.173-.554c-.36.774-.749 1.544-1.112 2.322-3.37 7.167-6.721 14.345-10.112 21.502-.72 1.497-1.559 2.93-2.351 4.388-.925 1.703-1.714 3.51-2.833 5.076-.868 1.216-1.872 2.541-3.73 2.473-.745-.029-1.53.295-2.232.147a2.175 2.175 0 0 1-1.44-1.101 11.878 11.878 0 0 1-.813-3.47c-.28-4.525.36-9 .986-13.471.9-6.48 1.876-12.985 3.708-19.306a1.56 1.56 0 0 0-.029-.99c-.72 1.483-1.44 2.974-2.206 4.446-1.13 2.207-2.283 4.406-3.427 6.606-.998 1.908-1.944 3.844-3.017 5.713a39.304 39.304 0 0 1-2.65 3.985c-.6.802-2.591.756-3.794.036-1.375-.821-2.29-2.07-3.1-3.409-.204-.342-.399-.688-.654-1.127a13.863 13.863 0 0 0-.854 1.76l-4.071 7.83zm14.19-10.598c.465-.857.954-1.703 1.386-2.578a8704.032 8704.032 0 0 0 10.278-20.771c.163-.271.252-.58.259-.896-.119-1.249-.255-2.52-.475-3.74-.162-.904-.468-1.779-.752-2.833-.382.288-.558.396-.702.536-.418.41-.843.814-1.224 1.256-2.722 3.157-4.763 6.761-6.411 10.541-1.8 4.093-3.338 8.301-4.767 12.538-.799 2.365-1.213 4.874-1.638 7.347-.122.72.224 1.541.526 2.246.302.706.795.72 1.231.058.587-.875 1.141-1.771 1.714-2.653l.576-1.051zm66.382-22.038c-1.908-.702-3.564-1.329-5.242-1.898a.808.808 0 0 0-.68.36 54.957 54.957 0 0 0-4.493 13.262c-.867 4.558-1.278 9.205-1.861 13.816-.027.587-.004 1.175.069 1.757l.32.051c5.997-8.287 8.956-17.87 11.901-27.37l-.014.022zm-4.54-13.536l-.061.58c-.209 1.94-.486 3.873.036 5.821.439 1.652 1.141 2.203 2.794 1.911.655-.115 1.281-.396 1.933-.529 1.112-.227 1.386-.95 1.551-1.998a13.912 13.912 0 0 0-1.08-8.125c-.511-1.13-1.173-2.16-2.728-1.821a.425.425 0 0 1-.202-.04c-.911 1.491-2.369 2.606-2.88 4.468l.637-.267zm-85.568 36.593c2.71-1.995 6.537-11.12 5.76-14.234a41.233 41.233 0 0 0-5.76 14.234zm-24.392 21.127l.295.083 5.615-19.511-.244-.069a7453.006 7453.006 0 0 0-5.666 19.497zm133.438-62.77c-.064-.062-.129-.123-.19-.188l-10.372 9.68c3.87-2.768 7.078-6.271 10.562-9.492zM90.964 139.74l6.455-9.1c-1.663 1.202-6.008 7.347-6.455 9.1zm-45.218 38.896l.202.069c1.138-3.948 2.276-7.895 3.416-11.84l-.223-.065c-1.13 3.946-2.262 7.891-3.395 11.836zm-3.326-5.137l.26.101 2.94-9.777-.28-.083c-.972 3.245-1.945 6.498-2.92 9.759zm109.957-49.17l3.877-4.046c-1.45.353-3.902 2.758-3.877 4.046zm-80.114 21.779c-1.88 1.62-3.107 3.726-4.122 5.976l4.122-5.976zM6.926 162.254l4.622-7.686a30.489 30.489 0 0 0-4.622 7.686zm88.624-21.045l.198.115 3.827-6.555-.256-.148-3.769 6.588zm115.868-28.799l-.205-.187c-1.098.342-2.304 1.832-2.261 2.937l2.466-2.75zm-59.771 21.459l-.202-.159a13.73 13.73 0 0 0-3.189 4.612l3.391-4.453zm30.771 17.56l.252.09c.569-1.982 1.136-3.967 1.703-5.954l-.281-.083-1.674 5.947zm29.641 5.068l-.255-.075a3923.81 3923.81 0 0 1-2.049 6.076l.216.072c.694-2.023 1.39-4.047 2.088-6.073zm-56.751-33.798l-.328-.227-1.112 1.774.201.137 1.239-1.684zM46.063 170.483l-.198-.054-.9 3.153.159.047.94-3.146zm4.194 22.963l.177.108 1.213-2.376-.242-.118-1.148 2.386zm19.53 14.795c-.958.215-1.902.49-2.826.824-.87.36-1.915.306-2.635.695a3.67 3.67 0 0 1-2.847.439c-.461.688-2.549 1.08-3.334.763-.636.264-1.287.488-1.95.67-2.276.468-4.562.903-6.84 1.325-2.28.421-4.583.788-6.865 1.227-.972.184-1.908.536-2.88.72-4.08.845-8.153 1.676-12.218 2.495-2.75.554-5.502 1.099-8.255 1.634-.299.024-.6.012-.896-.036-.086 0-.202-.043-.248 0-1.321 1.105-3.096.655-4.536 1.325-.414.194-.915-.551-1.239.158a28.17 28.17 0 0 0-.482-.565c-.058.799-.612.9-1.245 1.012-1.408.248-2.798.597-4.201.86-.652.122-1.358.302-1.973.162-.616-.14-1.26-.644-1.63-.85a3.447 3.447 0 0 1-.404-.867.718.718 0 0 1 .23-.576 4.336 4.336 0 0 1 1.109-.497c5.08-1.469 10.144-2.988 15.249-4.367a503.024 503.024 0 0 1 15.548-3.959c7.998-1.88 16.012-3.694 24.04-5.443a829.371 829.371 0 0 1 20.767-4.255 790.812 790.812 0 0 1 21.34-3.755c6.296-1.022 12.599-1.908 18.931-2.765 7.016-.95 14.04-1.828 21.07-2.689a2817.55 2817.55 0 0 1 23.367-2.746c5.439-.609 10.886-1.138 16.332-1.678 4.72-.468 9.435-.99 14.162-1.314 6.512-.446 13.031-.756 19.551-1.058 1.435-.01 2.869.068 4.294.234.455.072.904.177 1.343.313l-.968.641 1.371.295c.166.569.293 1.149.382 1.735.065.799-.418 1.109-1.181 1.102-1.962 0-3.924-.072-5.882 0-2.279.086-4.55.291-6.84.453-1.209.087-2.419.205-3.632.288-.358.051-.72.063-1.08.036-1.749-.587-3.24.558-4.91.59-1.886.036-3.765.36-5.648.587-7.941.918-15.886 1.8-23.824 2.772-7.2.871-14.399 1.8-21.599 2.754-6.559.864-13.118 1.714-19.655 2.703-9.065 1.368-18.111 2.837-27.157 4.32-5.116.832-10.217 1.753-15.325 2.617a2.52 2.52 0 0 1-.72-.126c-1.173-.165-2.275-.144-3.33.605-.51.36-1.155.72-1.965.259-.36-.201-1.08.13-1.602.36-.421.191-.698.562-1.235.148-.184-.144-.659.09-1.22.187l.777-1.213c-.335.115-.694.14-.745.277-.5 1.375-1.757.846-2.746 1.127.104.151.201.284.417.587l-1.537-.54 1.335-.835-.064-.162-2.351.72v.288l1.105-.011zm-5.45-2.52a6.957 6.957 0 0 0 2.797-.616l-1.321-.338c-.504.331-.983.644-1.469.957-1.199-.428-2.16.414-3.29.454l.08.342 3.203-.799zm14.209-2.966l-11.26 2.023c.118.435.36.507 1.227.316 2.426-.532 4.86-1.047 7.282-1.598.922-.209 1.825-.5 2.743-.745l3.65-.295c-.017-.13-.039-.259-.057-.389l-3.585.688zm20.061-3.348c.173-.04.343-.087.515-.112 7.956-1.159 15.908-2.351 23.867-3.463 5.962-.835 11.934-1.569 17.899-2.343 2.232-.288 4.463-.57 6.695-.846 4.119-.501 8.237-1.005 12.355-1.484l9.5-1.079c4.82-.526 9.644-1.034 14.464-1.574 1.145-.126 2.279-.36 3.42-.543.552.039 1.106.05 1.659.032 1.746-.144 3.485-.36 5.231-.486 3.866-.306 7.736-.587 11.602-.878v-.238c-2.984.234-5.972.45-8.956.72-3.172.27-6.343.576-9.514.864-.11.041-.223.071-.339.09-5.18.533-10.367 1.033-15.544 1.602-9 .983-17.978 1.966-26.956 3.035-6.119.72-12.239 1.577-18.359 2.433a2788.06 2788.06 0 0 0-24.331 3.521c-1.08.158-2.124.497-3.193.749a4.95 4.95 0 0 0-.95-.029c-3.144.497-6.287 1.004-9.428 1.523-.872.144-1.736.331-2.603.5l.05.227c1.635-.267 3.272-.522 4.903-.803 2.671-.472 5.342-.954 8.014-1.429v.011z" fill="#F3F6F9"/></svg>